<svg xmlns="http://www.w3.org/2000/svg" viewBox="0 0 440.08 90.33"><defs><style>.cls-1{fill:#fff;}.cls-2{fill:#e5e5e5;}</style></defs><title>Asset 6</title><g id="Layer_2" data-name="Layer 2"><g id="Layer_1-2" data-name="Layer 1"><path class="cls-1" d="M143.16,24.09l-4,2.49A16.76,16.76,0,0,0,125,19.69a16.37,16.37,0,0,0-11.9,4.61,15,15,0,0,0-4.73,11.2,15.9,15.9,0,0,0,2.18,8.06,15.27,15.27,0,0,0,6,5.87,18.07,18.07,0,0,0,22.63-4.8l4,2.63a18.9,18.9,0,0,1-7.55,6.57,24.12,24.12,0,0,1-10.8,2.33,21.32,21.32,0,0,1-15.43-5.91,19.23,19.23,0,0,1-6.13-14.38,20.55,20.55,0,0,1,2.87-10.58A20.19,20.19,0,0,1,114,17.67a23,23,0,0,1,11.21-2.74,23.94,23.94,0,0,1,7.52,1.19,20.89,20.89,0,0,1,6.15,3.1A16.88,16.88,0,0,1,143.16,24.09Z"/><path class="cls-1" d="M184.4,42.15l4.25,2.23A23.17,23.17,0,0,1,183.82,51a19.2,19.2,0,0,1-6.17,3.84,21.53,21.53,0,0,1-7.76,1.32q-9.6,0-15-6.29a21.22,21.22,0,0,1-5.41-14.22,21,21,0,0,1,4.58-13.3,18.73,18.73,0,0,1,15.55-7.43,19.35,19.35,0,0,1,16,7.61A21.24,21.24,0,0,1,190,35.95H154.66A16,16,0,0,0,159,47.15a13.93,13.93,0,0,0,10.43,4.37,16.75,16.75,0,0,0,5.83-1,15.33,15.33,0,0,0,4.82-2.76A23.54,23.54,0,0,0,184.4,42.15Zm0-10.56a16.73,16.73,0,0,0-2.94-6.45,13.92,13.92,0,0,0-5.11-3.89,15.64,15.64,0,0,0-6.68-1.48,14.38,14.38,0,0,0-9.92,3.71,16.77,16.77,0,0,0-4.58,8.11Z"/><path class="cls-1" d="M196,15.94h5.15v5.73A18.1,18.1,0,0,1,206,16.61a9.6,9.6,0,0,1,5.33-1.68,9.21,9.21,0,0,1,4.47,1.33l-2.63,4.25a7,7,0,0,0-2.67-.68,7.3,7.3,0,0,0-4.87,2.07,13.1,13.1,0,0,0-3.57,6.43q-.94,3.35-.94,13.55V55.16H196Z"/><path class="cls-1" d="M223,1.38h5V15.94h8V20.3h-8V55.16h-5V20.3h-6.88V15.94H223Z"/><path class="cls-1" d="M281.22,15.94V55.16h-5V48.42a21.63,21.63,0,0,1-7.12,5.8,19.89,19.89,0,0,1-22.85-4.09,20.24,20.24,0,0,1-5.89-14.69A19.88,19.88,0,0,1,246.33,21a19.39,19.39,0,0,1,14.31-6A18.51,18.51,0,0,1,269.38,17a19.88,19.88,0,0,1,6.87,6.16V15.94ZM261.06,19.8a15.22,15.22,0,0,0-13.45,7.89,15.89,15.89,0,0,0,0,15.84,15.46,15.46,0,0,0,5.71,5.89A14.91,14.91,0,0,0,261,51.52a15.76,15.76,0,0,0,7.85-2.09,14.6,14.6,0,0,0,5.71-5.65,16.13,16.13,0,0,0,2-8,15.61,15.61,0,0,0-4.48-11.38A14.85,14.85,0,0,0,261.06,19.8Z"/><path class="cls-1" d="M329.17,24.09l-4,2.49A16.76,16.76,0,0,0,311,19.69a16.37,16.37,0,0,0-11.9,4.61,15,15,0,0,0-4.73,11.2,15.9,15.9,0,0,0,2.18,8.06,15.27,15.27,0,0,0,6,5.87,18.07,18.07,0,0,0,22.63-4.8l4,2.63a18.9,18.9,0,0,1-7.55,6.57,24.12,24.12,0,0,1-10.8,2.33,21.32,21.32,0,0,1-15.43-5.91,19.23,19.23,0,0,1-6.13-14.38,20.55,20.55,0,0,1,2.87-10.58A20.19,20.19,0,0,1,300,17.67a23,23,0,0,1,11.21-2.74,23.94,23.94,0,0,1,7.52,1.19,20.89,20.89,0,0,1,6.15,3.1A16.88,16.88,0,0,1,329.17,24.09Z"/><path class="cls-1" d="M336.74,15.94h5V34.25q0,6.7.72,9.23a10.29,10.29,0,0,0,4.13,5.7,12.55,12.55,0,0,0,7.27,2.09,12.28,12.28,0,0,0,7.17-2,10.42,10.42,0,0,0,4.06-5.35q.76-2.27.76-9.62V15.94h5.16V35.19q0,8.11-1.89,12.22a14.46,14.46,0,0,1-5.7,6.43,18,18,0,0,1-9.53,2.32,18.19,18.19,0,0,1-9.57-2.32,14.34,14.34,0,0,1-5.73-6.49q-1.89-4.16-1.89-12.53Z"/><path class="cls-1" d="M378.87,15.94H384v5.73a18.07,18.07,0,0,1,4.87-5.06,9.59,9.59,0,0,1,5.33-1.68,9.21,9.21,0,0,1,4.47,1.33l-2.63,4.25a7,7,0,0,0-2.67-.68,7.3,7.3,0,0,0-4.87,2.07A13.12,13.12,0,0,0,385,28.34Q384,31.69,384,41.9V55.16h-5.15Z"/><path class="cls-1" d="M434.53,42.15l4.25,2.23A23.17,23.17,0,0,1,433.95,51a19.2,19.2,0,0,1-6.17,3.84A21.53,21.53,0,0,1,420,56.17q-9.6,0-15-6.29a21.22,21.22,0,0,1-5.41-14.22,21,21,0,0,1,4.58-13.3,18.73,18.73,0,0,1,15.55-7.43,19.35,19.35,0,0,1,16,7.61,21.24,21.24,0,0,1,4.33,13.41H404.79a16,16,0,0,0,4.37,11.2,13.93,13.93,0,0,0,10.43,4.37,16.75,16.75,0,0,0,5.83-1,15.33,15.33,0,0,0,4.82-2.76A23.54,23.54,0,0,0,434.53,42.15Zm0-10.56a16.73,16.73,0,0,0-2.94-6.45,13.92,13.92,0,0,0-5.11-3.89,15.64,15.64,0,0,0-6.68-1.48,14.38,14.38,0,0,0-9.92,3.71,16.77,16.77,0,0,0-4.58,8.11Z"/><g id="_Group_" data-name="&lt;Group&gt;"><path class="cls-1" d="M40.5,45.34a44.73,44.73,0,0,0,48.15,9.89V30.92A23.86,23.86,0,0,1,52.58,0h-23A44.71,44.71,0,0,0,40.5,45.34Z"/></g><g id="_Group_2" data-name="&lt;Group&gt;"><path class="cls-2" d="M30.6,30.27a44.5,44.5,0,0,0,31.66,27,49.82,49.82,0,0,0-31.66-27Z"/></g><g id="_Group_3" data-name="&lt;Group&gt;"><path class="cls-1" d="M48.15,43.31A44.73,44.73,0,0,0,0,33.42V57.73A23.86,23.86,0,0,1,36.07,88.65h23A44.71,44.71,0,0,0,48.15,43.31Z"/></g><path class="cls-1" d="M104.73,77.3h7v2.38h-4.56V82h4.56v2.34h-4.56V87.7h4.56v2.39h-7Z"/><path class="cls-1" d="M125.38,77h2.37V90.09h-2.37Z"/><path class="cls-1" d="M151.3,86h-7.62a2.54,2.54,0,0,0,.88,1.6,2.77,2.77,0,0,0,1.83.6,3.16,3.16,0,0,0,2.29-.93l2,.94a4.72,4.72,0,0,1-1.79,1.57,5.6,5.6,0,0,1-2.48.51,4.9,4.9,0,0,1-3.62-1.4,4.78,4.78,0,0,1-1.4-3.52,4.94,4.94,0,0,1,1.4-3.59,4.68,4.68,0,0,1,3.5-1.43,4.86,4.86,0,0,1,3.63,1.43,5.17,5.17,0,0,1,1.4,3.78Zm-2.37-1.87a2.38,2.38,0,0,0-.93-1.29,2.69,2.69,0,0,0-1.61-.5,2.84,2.84,0,0,0-1.74.56,3.11,3.11,0,0,0-.87,1.23Z"/><path class="cls-1" d="M174.4,82.54l-2,1.09a3.36,3.36,0,0,0-1.1-.81,3.31,3.31,0,0,0-1.27-.23,3,3,0,0,0-2.15.79,2.7,2.7,0,0,0-.82,2,2.62,2.62,0,0,0,.79,2,2.87,2.87,0,0,0,2.08.76,3,3,0,0,0,2.48-1.09l1.87,1.28a5.76,5.76,0,0,1-8.2.5,4.91,4.91,0,0,1,1.19-7.8,5.72,5.72,0,0,1,2.75-.66,5.58,5.58,0,0,1,2.53.56A4.81,4.81,0,0,1,174.4,82.54Z"/><path class="cls-1" d="M188.75,77.15h2.37v3.49h1.41v2h-1.41v7.41h-2.37V82.68h-1.22v-2h1.22Z"/><path class="cls-1" d="M205.16,80.63h2v1.19a2.54,2.54,0,0,1,.88-1.07,2.12,2.12,0,0,1,1.2-.37,2.22,2.22,0,0,1,1,.24l-.74,2a1.63,1.63,0,0,0-.69-.21,1.09,1.09,0,0,0-.93.68,6.2,6.2,0,0,0-.38,2.66v4.28h-2.36Z"/><path class="cls-1" d="M227.78,80.39a5,5,0,0,1,2.52.67,4.91,4.91,0,0,1,2.5,4.29,5,5,0,0,1-.67,2.5,4.8,4.8,0,0,1-1.81,1.82,5,5,0,0,1-2.53.66,4.72,4.72,0,0,1-3.47-1.45,5,5,0,0,1,.19-7.21A4.75,4.75,0,0,1,227.78,80.39Zm0,2.23a2.44,2.44,0,0,0-1.84.77,2.73,2.73,0,0,0-.74,2,2.78,2.78,0,0,0,.73,2,2.43,2.43,0,0,0,1.84.76,2.46,2.46,0,0,0,1.85-.77,3,3,0,0,0,0-4A2.46,2.46,0,0,0,227.82,82.62Z"/><path class="cls-1" d="M246.65,80.63H249v1a5.69,5.69,0,0,1,1.46-.95,3.54,3.54,0,0,1,1.34-.27,3.25,3.25,0,0,1,2.39,1,3.37,3.37,0,0,1,.82,2.47v6.25h-2.35V85.95a10.45,10.45,0,0,0-.15-2.25,1.54,1.54,0,0,0-.53-.85,1.48,1.48,0,0,0-.93-.29,1.75,1.75,0,0,0-1.24.48,2.57,2.57,0,0,0-.72,1.33,10.76,10.76,0,0,0-.1,1.92v3.79h-2.37Z"/><path class="cls-1" d="M270.18,76.74a1.45,1.45,0,0,1,1.07.45,1.5,1.5,0,0,1,.45,1.1,1.48,1.48,0,0,1-.44,1.08,1.43,1.43,0,0,1-1.06.45,1.45,1.45,0,0,1-1.08-.46,1.53,1.53,0,0,1-.45-1.11,1.51,1.51,0,0,1,1.51-1.51ZM269,80.63h2.37v9.46H269Z"/><path class="cls-1" d="M294.7,82.54l-2,1.09a3.36,3.36,0,0,0-1.1-.81,3.31,3.31,0,0,0-1.27-.23,3,3,0,0,0-2.15.79,2.7,2.7,0,0,0-.82,2,2.62,2.62,0,0,0,.79,2,2.87,2.87,0,0,0,2.08.76,3,3,0,0,0,2.48-1.09l1.87,1.28a5.76,5.76,0,0,1-8.2.5,4.91,4.91,0,0,1,1.19-7.8,5.72,5.72,0,0,1,2.75-.66,5.58,5.58,0,0,1,2.53.56A4.81,4.81,0,0,1,294.7,82.54Z"/><path class="cls-1" d="M325.92,77.3h2.47v4.82h4.27V77.3h2.46V90.09h-2.46V84.48h-4.27v5.61h-2.47Z"/><path class="cls-1" d="M359.17,86h-7.62a2.54,2.54,0,0,0,.88,1.6,2.77,2.77,0,0,0,1.83.6,3.16,3.16,0,0,0,2.29-.93l2,.94a4.72,4.72,0,0,1-1.79,1.57,5.6,5.6,0,0,1-2.48.51,4.9,4.9,0,0,1-3.62-1.4,4.78,4.78,0,0,1-1.4-3.52,4.94,4.94,0,0,1,1.4-3.59,4.68,4.68,0,0,1,3.5-1.43,4.86,4.86,0,0,1,3.63,1.43,5.17,5.17,0,0,1,1.4,3.78Zm-2.37-1.87a2.38,2.38,0,0,0-.93-1.29,2.69,2.69,0,0,0-1.61-.5,2.84,2.84,0,0,0-1.74.56,3.11,3.11,0,0,0-.87,1.23Z"/><path class="cls-1" d="M380,80.63h2.37v9.46H380v-1a4.65,4.65,0,0,1-1.39,1,3.89,3.89,0,0,1-1.51.29,4.21,4.21,0,0,1-3.17-1.42,5,5,0,0,1-1.34-3.53,5.08,5.08,0,0,1,1.29-3.59,4.12,4.12,0,0,1,3.14-1.4,4,4,0,0,1,1.6.32,4.36,4.36,0,0,1,1.38,1Zm-2.49,1.95a2.4,2.4,0,0,0-1.83.78,3.11,3.11,0,0,0,0,4,2.4,2.4,0,0,0,1.82.79,2.44,2.44,0,0,0,1.85-.78,2.84,2.84,0,0,0,.74-2,2.76,2.76,0,0,0-.74-2A2.47,2.47,0,0,0,377.5,82.58Z"/><path class="cls-1" d="M396.42,77h2.37V90.09h-2.37Z"/><path class="cls-1" d="M413.16,77.15h2.37v3.49h1.41v2h-1.41v7.41h-2.37V82.68h-1.22v-2h1.22Z"/><path class="cls-1" d="M430.14,77h2.36v4.61a5.41,5.41,0,0,1,1.4-.9,3.61,3.61,0,0,1,1.43-.3,3.21,3.21,0,0,1,2.37,1,3.4,3.4,0,0,1,.83,2.48v6.25h-2.34V85.94a10.25,10.25,0,0,0-.16-2.22,1.55,1.55,0,0,0-.53-.87,1.5,1.5,0,0,0-.93-.29,1.76,1.76,0,0,0-1.24.48,2.53,2.53,0,0,0-.72,1.3,10.76,10.76,0,0,0-.1,1.95v3.8h-2.36Z"/></g></g></svg>